<mxfile host="Electron" agent="Mozilla/5.0 (Macintosh; Intel Mac OS X 10_15_7) AppleWebKit/537.36 (KHTML, like Gecko) draw.io/28.1.2 Chrome/138.0.7204.243 Electron/37.4.0 Safari/537.36" version="28.1.2">
  <diagram name="Page-1" id="bqG56HFPRCOmO3QMQPZh">
    <mxGraphModel dx="876" dy="611" grid="1" gridSize="10" guides="1" tooltips="1" connect="1" arrows="1" fold="1" page="1" pageScale="1" pageWidth="827" pageHeight="1169" math="0" shadow="0">
      <root>
        <mxCell id="0" />
        <mxCell id="1" parent="0" />
        <mxCell id="_Vt8g3annfKdBHychoc4-1" value="&lt;b&gt;&lt;font style=&quot;font-size: 18px;&quot;&gt;Integration Model&lt;/font&gt;&lt;/b&gt;" style="text;html=1;align=center;verticalAlign=middle;whiteSpace=wrap;rounded=0;" parent="1" vertex="1">
          <mxGeometry x="70" y="40" width="260" height="30" as="geometry" />
        </mxCell>
        <mxCell id="_Vt8g3annfKdBHychoc4-36" value="crm_cust_info" style="swimlane;fontStyle=1;childLayout=stackLayout;horizontal=1;startSize=30;horizontalStack=0;resizeParent=1;resizeParentMax=0;resizeLast=0;collapsible=1;marginBottom=0;whiteSpace=wrap;html=1;rounded=1;fillColor=#1ba1e2;fontColor=#ffffff;strokeColor=#006EAF;fontSize=14;" parent="1" vertex="1">
          <mxGeometry x="400" y="420" width="160" height="90" as="geometry" />
        </mxCell>
        <mxCell id="_Vt8g3annfKdBHychoc4-37" value="cst_id" style="text;strokeColor=none;fillColor=none;align=left;verticalAlign=middle;spacingLeft=4;spacingRight=4;overflow=hidden;points=[[0,0.5],[1,0.5]];portConstraint=eastwest;rotatable=0;whiteSpace=wrap;html=1;fontStyle=1;fontSize=14;" parent="_Vt8g3annfKdBHychoc4-36" vertex="1">
          <mxGeometry y="30" width="160" height="30" as="geometry" />
        </mxCell>
        <mxCell id="_Vt8g3annfKdBHychoc4-55" value="cst_key" style="text;strokeColor=none;fillColor=none;align=left;verticalAlign=middle;spacingLeft=4;spacingRight=4;overflow=hidden;points=[[0,0.5],[1,0.5]];portConstraint=eastwest;rotatable=0;whiteSpace=wrap;html=1;fontStyle=1;fontSize=14;" parent="_Vt8g3annfKdBHychoc4-36" vertex="1">
          <mxGeometry y="60" width="160" height="30" as="geometry" />
        </mxCell>
        <mxCell id="_Vt8g3annfKdBHychoc4-40" value="Customer Information" style="text;html=1;align=center;verticalAlign=middle;whiteSpace=wrap;rounded=0;" parent="1" vertex="1">
          <mxGeometry x="410" y="390" width="140" height="30" as="geometry" />
        </mxCell>
        <mxCell id="_Vt8g3annfKdBHychoc4-41" value="crm_prd_info" style="swimlane;fontStyle=1;childLayout=stackLayout;horizontal=1;startSize=30;horizontalStack=0;resizeParent=1;resizeParentMax=0;resizeLast=0;collapsible=1;marginBottom=0;whiteSpace=wrap;html=1;rounded=1;fillColor=#1ba1e2;fontColor=#ffffff;strokeColor=#006EAF;fontSize=14;" parent="1" vertex="1">
          <mxGeometry x="170" y="310" width="160" height="90" as="geometry" />
        </mxCell>
        <mxCell id="_Vt8g3annfKdBHychoc4-42" value="prd_key" style="text;strokeColor=none;fillColor=none;align=left;verticalAlign=middle;spacingLeft=4;spacingRight=4;overflow=hidden;points=[[0,0.5],[1,0.5]];portConstraint=eastwest;rotatable=0;whiteSpace=wrap;html=1;fontStyle=1;fontSize=14;" parent="_Vt8g3annfKdBHychoc4-41" vertex="1">
          <mxGeometry y="30" width="160" height="30" as="geometry" />
        </mxCell>
        <mxCell id="_Vt8g3annfKdBHychoc4-48" value="cst_id" style="text;strokeColor=none;fillColor=none;align=left;verticalAlign=middle;spacingLeft=4;spacingRight=4;overflow=hidden;points=[[0,0.5],[1,0.5]];portConstraint=eastwest;rotatable=0;whiteSpace=wrap;html=1;fontStyle=1;fontSize=14;" parent="_Vt8g3annfKdBHychoc4-41" vertex="1">
          <mxGeometry y="60" width="160" height="30" as="geometry" />
        </mxCell>
        <mxCell id="_Vt8g3annfKdBHychoc4-43" value="Records About Sales &amp;amp; Order" style="text;html=1;align=center;verticalAlign=middle;whiteSpace=wrap;rounded=0;" parent="1" vertex="1">
          <mxGeometry x="140" y="280" width="230" height="30" as="geometry" />
        </mxCell>
        <mxCell id="_Vt8g3annfKdBHychoc4-44" value="crm_prd_info" style="swimlane;fontStyle=1;childLayout=stackLayout;horizontal=1;startSize=30;horizontalStack=0;resizeParent=1;resizeParentMax=0;resizeLast=0;collapsible=1;marginBottom=0;whiteSpace=wrap;html=1;rounded=1;fillColor=#1ba1e2;fontColor=#ffffff;strokeColor=#006EAF;fontSize=14;" parent="1" vertex="1">
          <mxGeometry x="400" y="230" width="160" height="60" as="geometry" />
        </mxCell>
        <mxCell id="_Vt8g3annfKdBHychoc4-45" value="prd_id" style="text;strokeColor=none;fillColor=none;align=left;verticalAlign=middle;spacingLeft=4;spacingRight=4;overflow=hidden;points=[[0,0.5],[1,0.5]];portConstraint=eastwest;rotatable=0;whiteSpace=wrap;html=1;fontStyle=1;fontSize=14;" parent="_Vt8g3annfKdBHychoc4-44" vertex="1">
          <mxGeometry y="30" width="160" height="30" as="geometry" />
        </mxCell>
        <mxCell id="_Vt8g3annfKdBHychoc4-46" value="Product Current and History Information" style="text;html=1;align=center;verticalAlign=middle;whiteSpace=wrap;rounded=0;" parent="1" vertex="1">
          <mxGeometry x="370" y="200" width="230" height="30" as="geometry" />
        </mxCell>
        <mxCell id="_Vt8g3annfKdBHychoc4-49" style="edgeStyle=orthogonalEdgeStyle;rounded=0;orthogonalLoop=1;jettySize=auto;html=1;" parent="1" source="_Vt8g3annfKdBHychoc4-42" target="_Vt8g3annfKdBHychoc4-45" edge="1">
          <mxGeometry relative="1" as="geometry" />
        </mxCell>
        <mxCell id="_Vt8g3annfKdBHychoc4-50" style="edgeStyle=orthogonalEdgeStyle;rounded=0;orthogonalLoop=1;jettySize=auto;html=1;" parent="1" source="_Vt8g3annfKdBHychoc4-48" target="_Vt8g3annfKdBHychoc4-37" edge="1">
          <mxGeometry relative="1" as="geometry" />
        </mxCell>
        <mxCell id="_Vt8g3annfKdBHychoc4-52" value="erp_cust_az12" style="swimlane;fontStyle=1;childLayout=stackLayout;horizontal=1;startSize=30;horizontalStack=0;resizeParent=1;resizeParentMax=0;resizeLast=0;collapsible=1;marginBottom=0;whiteSpace=wrap;html=1;rounded=1;fillColor=#a0522d;fontColor=#ffffff;strokeColor=#6D1F00;fontSize=14;" parent="1" vertex="1">
          <mxGeometry x="765" y="450" width="160" height="60" as="geometry" />
        </mxCell>
        <mxCell id="_Vt8g3annfKdBHychoc4-53" value="cst_id" style="text;strokeColor=none;fillColor=none;align=left;verticalAlign=middle;spacingLeft=4;spacingRight=4;overflow=hidden;points=[[0,0.5],[1,0.5]];portConstraint=eastwest;rotatable=0;whiteSpace=wrap;html=1;fontStyle=1;fontSize=14;" parent="_Vt8g3annfKdBHychoc4-52" vertex="1">
          <mxGeometry y="30" width="160" height="30" as="geometry" />
        </mxCell>
        <mxCell id="_Vt8g3annfKdBHychoc4-54" value="Extra Customer Information" style="text;html=1;align=center;verticalAlign=middle;whiteSpace=wrap;rounded=0;" parent="1" vertex="1">
          <mxGeometry x="735" y="420" width="230" height="30" as="geometry" />
        </mxCell>
        <mxCell id="_Vt8g3annfKdBHychoc4-57" style="edgeStyle=orthogonalEdgeStyle;rounded=0;orthogonalLoop=1;jettySize=auto;html=1;entryX=0;entryY=0.5;entryDx=0;entryDy=0;" parent="1" source="_Vt8g3annfKdBHychoc4-55" target="_Vt8g3annfKdBHychoc4-53" edge="1">
          <mxGeometry relative="1" as="geometry" />
        </mxCell>
        <mxCell id="_Vt8g3annfKdBHychoc4-58" value="erp_loc_a101" style="swimlane;fontStyle=1;childLayout=stackLayout;horizontal=1;startSize=30;horizontalStack=0;resizeParent=1;resizeParentMax=0;resizeLast=0;collapsible=1;marginBottom=0;whiteSpace=wrap;html=1;rounded=1;fillColor=#a0522d;fontColor=#ffffff;strokeColor=#6D1F00;fontSize=14;" parent="1" vertex="1">
          <mxGeometry x="765" y="660" width="160" height="60" as="geometry" />
        </mxCell>
        <mxCell id="_Vt8g3annfKdBHychoc4-59" value="cst_id" style="text;strokeColor=none;fillColor=none;align=left;verticalAlign=middle;spacingLeft=4;spacingRight=4;overflow=hidden;points=[[0,0.5],[1,0.5]];portConstraint=eastwest;rotatable=0;whiteSpace=wrap;html=1;fontStyle=1;fontSize=14;" parent="_Vt8g3annfKdBHychoc4-58" vertex="1">
          <mxGeometry y="30" width="160" height="30" as="geometry" />
        </mxCell>
        <mxCell id="_Vt8g3annfKdBHychoc4-60" value="Location Of Customers" style="text;html=1;align=center;verticalAlign=middle;whiteSpace=wrap;rounded=0;" parent="1" vertex="1">
          <mxGeometry x="735" y="630" width="230" height="30" as="geometry" />
        </mxCell>
        <mxCell id="_Vt8g3annfKdBHychoc4-62" style="edgeStyle=orthogonalEdgeStyle;rounded=0;orthogonalLoop=1;jettySize=auto;html=1;entryX=0;entryY=0.5;entryDx=0;entryDy=0;" parent="1" source="_Vt8g3annfKdBHychoc4-55" target="_Vt8g3annfKdBHychoc4-59" edge="1">
          <mxGeometry relative="1" as="geometry">
            <mxPoint x="760" y="710" as="targetPoint" />
          </mxGeometry>
        </mxCell>
        <mxCell id="_Vt8g3annfKdBHychoc4-63" value="erp_px_cat_g1v2" style="swimlane;fontStyle=1;childLayout=stackLayout;horizontal=1;startSize=30;horizontalStack=0;resizeParent=1;resizeParentMax=0;resizeLast=0;collapsible=1;marginBottom=0;whiteSpace=wrap;html=1;rounded=1;fillColor=#a0522d;fontColor=#ffffff;strokeColor=#6D1F00;fontSize=14;" parent="1" vertex="1">
          <mxGeometry x="760" y="230" width="160" height="60" as="geometry" />
        </mxCell>
        <mxCell id="_Vt8g3annfKdBHychoc4-64" value="id" style="text;strokeColor=none;fillColor=none;align=left;verticalAlign=middle;spacingLeft=4;spacingRight=4;overflow=hidden;points=[[0,0.5],[1,0.5]];portConstraint=eastwest;rotatable=0;whiteSpace=wrap;html=1;fontStyle=1;fontSize=14;" parent="_Vt8g3annfKdBHychoc4-63" vertex="1">
          <mxGeometry y="30" width="160" height="30" as="geometry" />
        </mxCell>
        <mxCell id="_Vt8g3annfKdBHychoc4-65" value="Extra Information On Products" style="text;html=1;align=center;verticalAlign=middle;whiteSpace=wrap;rounded=0;" parent="1" vertex="1">
          <mxGeometry x="730" y="200" width="230" height="30" as="geometry" />
        </mxCell>
        <mxCell id="_Vt8g3annfKdBHychoc4-67" style="edgeStyle=orthogonalEdgeStyle;rounded=0;orthogonalLoop=1;jettySize=auto;html=1;" parent="1" source="_Vt8g3annfKdBHychoc4-45" target="_Vt8g3annfKdBHychoc4-64" edge="1">
          <mxGeometry relative="1" as="geometry" />
        </mxCell>
        <mxCell id="iA3zx6tEXGr1Y3RdaEvd-6" value="" style="edgeStyle=orthogonalEdgeStyle;rounded=0;orthogonalLoop=1;jettySize=auto;html=1;" edge="1" parent="1" source="_Vt8g3annfKdBHychoc4-68" target="_Vt8g3annfKdBHychoc4-54">
          <mxGeometry relative="1" as="geometry" />
        </mxCell>
        <mxCell id="_Vt8g3annfKdBHychoc4-68" value="" style="rounded=1;whiteSpace=wrap;html=1;fillColor=none;dashed=1;dashPattern=8 8;" parent="1" vertex="1">
          <mxGeometry x="130" y="150" width="510" height="470" as="geometry" />
        </mxCell>
        <mxCell id="_Vt8g3annfKdBHychoc4-70" value="&lt;b&gt;&lt;font style=&quot;font-size: 18px; color: rgb(0, 0, 0);&quot;&gt;CRM&lt;/font&gt;&lt;/b&gt;" style="rounded=1;whiteSpace=wrap;html=1;fillColor=#1ba1e2;fontColor=#ffffff;strokeColor=#006EAF;" parent="1" vertex="1">
          <mxGeometry x="330" y="110" width="120" height="60" as="geometry" />
        </mxCell>
        <mxCell id="_Vt8g3annfKdBHychoc4-71" value="" style="rounded=0;whiteSpace=wrap;html=1;rotation=90;fillColor=none;dashed=1;" parent="1" vertex="1">
          <mxGeometry x="539.23" y="336.41" width="600.93" height="240.62" as="geometry" />
        </mxCell>
        <mxCell id="_Vt8g3annfKdBHychoc4-72" value="&lt;b&gt;&lt;font style=&quot;font-size: 18px;&quot;&gt;ERP&lt;/font&gt;&lt;/b&gt;" style="rounded=1;whiteSpace=wrap;html=1;fillColor=#fa6800;fontColor=#000000;strokeColor=#C73500;" parent="1" vertex="1">
          <mxGeometry x="779.6899999999999" y="120" width="120" height="60" as="geometry" />
        </mxCell>
        <mxCell id="iA3zx6tEXGr1Y3RdaEvd-1" value="&lt;b&gt;&lt;font style=&quot;font-size: 16px;&quot;&gt;Product&lt;/font&gt;&lt;/b&gt;" style="text;html=1;align=center;verticalAlign=middle;whiteSpace=wrap;overflow=hidden;fillColor=light-dark(#cce5ff, #076ad5);strokeColor=#36393d;" vertex="1" parent="1">
          <mxGeometry x="400" y="290" width="160" height="20" as="geometry" />
        </mxCell>
        <mxCell id="iA3zx6tEXGr1Y3RdaEvd-2" value="&lt;b&gt;&lt;font style=&quot;font-size: 16px;&quot;&gt;Product&lt;/font&gt;&lt;/b&gt;" style="text;html=1;align=center;verticalAlign=middle;whiteSpace=wrap;overflow=hidden;fillColor=light-dark(#cce5ff, #076ad5);strokeColor=#36393d;" vertex="1" parent="1">
          <mxGeometry x="760" y="290" width="160" height="20" as="geometry" />
        </mxCell>
        <mxCell id="iA3zx6tEXGr1Y3RdaEvd-3" value="&lt;span style=&quot;font-size: 16px;&quot;&gt;&lt;b&gt;Customers&lt;/b&gt;&lt;/span&gt;" style="text;html=1;align=center;verticalAlign=middle;whiteSpace=wrap;overflow=hidden;fillColor=#f8cecc;strokeColor=#b85450;gradientColor=#ea6b66;" vertex="1" parent="1">
          <mxGeometry x="400" y="510" width="160" height="20" as="geometry" />
        </mxCell>
        <mxCell id="iA3zx6tEXGr1Y3RdaEvd-4" value="&lt;span style=&quot;font-size: 16px;&quot;&gt;&lt;b&gt;Customers&lt;/b&gt;&lt;/span&gt;" style="text;html=1;align=center;verticalAlign=middle;whiteSpace=wrap;overflow=hidden;fillColor=#f8cecc;strokeColor=#b85450;gradientColor=#ea6b66;" vertex="1" parent="1">
          <mxGeometry x="765" y="510" width="160" height="20" as="geometry" />
        </mxCell>
        <mxCell id="iA3zx6tEXGr1Y3RdaEvd-5" value="&lt;span style=&quot;font-size: 16px;&quot;&gt;&lt;b&gt;Customers&lt;/b&gt;&lt;/span&gt;" style="text;html=1;align=center;verticalAlign=middle;whiteSpace=wrap;overflow=hidden;fillColor=#f8cecc;strokeColor=#b85450;gradientColor=#ea6b66;" vertex="1" parent="1">
          <mxGeometry x="765" y="720" width="160" height="20" as="geometry" />
        </mxCell>
        <mxCell id="iA3zx6tEXGr1Y3RdaEvd-7" value="&lt;span style=&quot;font-size: 16px;&quot;&gt;&lt;b&gt;Sales&lt;/b&gt;&lt;/span&gt;" style="text;html=1;align=center;verticalAlign=middle;whiteSpace=wrap;overflow=hidden;fillColor=light-dark(#CCE5FF,#CC0000);strokeColor=#36393d;" vertex="1" parent="1">
          <mxGeometry x="170" y="400" width="160" height="20" as="geometry" />
        </mxCell>
      </root>
    </mxGraphModel>
  </diagram>
</mxfile>
